<svg width="1024" height="1024" viewBox="0 0 1024 1024" fill="none" xmlns="http://www.w3.org/2000/svg">
<path d="M596.412 305.198C635.82 255.512 705.484 223.996 768.564 237.304C808.958 245.824 850.734 267.944 873.84 303.398C878.26 307.932 881.676 313.864 884.9 319.302C934.996 403.802 902.6 494.932 850.108 569.716C780.69 668.612 671.256 747.472 569.808 810.206L564.692 787.91C561.136 776.916 555.442 758.788 555.544 747.586C571.374 709.296 598.458 673.182 613.512 635.572C599.242 616.744 576.286 592.232 564.692 573.418C578.178 559.196 602.656 540.36 618.066 527.678C625.682 521.41 647.45 508.566 639.762 495.822C629.432 478.696 593.706 456.154 580.166 437.642C590.918 424.254 634.018 382.49 637.694 370.6C634.616 357.188 604.886 320.476 596.412 305.198Z" fill="#FD7069"/>
<path d="M564.691 787.91C568.877 785.994 573.025 782.864 576.935 780.394C639.189 741.054 698.651 695.996 752.441 645.726C833.209 570.24 931.733 451.328 884.665 332.832C881.819 325.666 870.943 306.97 870.713 301.022L872.215 301.95L870.837 301.206C871.791 302.038 872.753 302.756 873.839 303.398C878.259 307.932 881.675 313.864 884.899 319.302C934.995 403.802 902.599 494.932 850.107 569.716C780.689 668.612 671.255 747.472 569.807 810.206L564.691 787.91Z" fill="#D15042"/>
<path d="M561.522 160.433C568.656 156.681 576.852 160.686 574.17 169.683C571.692 177.99 565.634 187.905 561.67 195.763L524.702 267.812C519.838 277.35 511.782 290.712 508.602 300.572C516.182 314.272 539.374 347.806 542.3 360.342C541.552 368.67 531.88 374.372 526.368 379.91L492.596 414.104C490.122 416.58 479.946 424.118 481.472 427.75L483.192 429.114L527.662 473.42C532.29 478.074 540.04 483.828 542.3 490.206C539.396 503.176 483.48 573.87 473.016 589.754L477.128 591.8C487.34 597.154 529.134 621.368 534.016 628.332C532.392 639.734 498.924 700.468 492.316 714.442C490.684 717.892 489.188 722.074 487.098 725.226C487.53 731.998 491.91 745.612 493.77 752.838L501.442 782.1C502.782 787.2 503.884 792.55 505.522 797.552L506.462 798.192C507.472 797.672 507.364 793.766 508.602 792.424C512.784 806.106 515.25 820.964 520.604 834.13C518.244 832.762 515.89 831.4 513.588 829.934C507.37 826.968 499.944 823.514 494.71 819.05C483.476 814.43 473.064 807.102 462.6 801C418.908 775.516 365.974 741.886 327.876 709.336C331.512 705.74 334.436 702.148 337.15 697.802C342.342 685.974 340.892 674.432 333.882 663.534C337.054 656.762 342.24 650.854 346.172 644.476C365.922 612.446 362.582 579.986 354.202 544.706C357.154 541.434 361.04 538.738 364.416 535.89C385.836 517.81 399.188 486.27 386.62 459.462C374.248 433.074 377.626 445.754 382.392 415.652C385.304 397.25 389.37 346.304 361.146 345.692C346.864 345.382 315.176 363.618 303.932 372.14C282.19 388.624 296.054 385.208 264.358 389.184C200.2 340.294 150.925 341.114 180.813 434.944C186.895 454.04 190.702 449.634 185.803 468.574C180.458 489.238 184.864 508.02 195.506 526.272C188.659 529.14 182.939 532.578 176.874 536.776C149.081 485.66 136.79 445.306 148.394 384.93C167.897 283.454 266.114 221.778 366.208 241.364C402.712 248.506 449.64 272.016 470.79 303.398C484.062 322.786 503.404 349.468 513.588 370.6C516.924 366.42 520.282 362.6 524.16 358.898C518.134 351.178 493.872 310.582 492.67 302.852C490.782 290.72 503.532 272.794 508.764 262.39L542.716 196.141C547.922 186.115 554.966 168.815 561.522 160.433Z" fill="#FECB5B"/>
<path d="M561.521 160.433C568.655 156.681 576.851 160.686 574.169 169.683C571.691 177.99 565.633 187.905 561.669 195.763L524.702 267.812C519.838 277.35 511.781 290.712 508.601 300.572C516.181 314.272 539.373 347.806 542.299 360.342C541.551 368.67 531.879 374.372 526.367 379.91L492.595 414.104C490.121 416.58 479.945 424.118 481.471 427.75L483.191 429.114L527.661 473.42C532.289 478.074 540.039 483.828 542.299 490.206C539.395 503.176 483.479 573.87 473.015 589.754L477.127 591.8C487.339 597.154 529.133 621.368 534.015 628.332C532.391 639.734 498.923 700.468 492.315 714.442C490.683 717.892 489.187 722.074 487.097 725.226C487.529 731.998 491.909 745.612 493.769 752.838L501.441 782.1C502.781 787.2 503.883 792.55 505.521 797.552L506.461 798.192C507.471 797.672 507.363 793.766 508.601 792.424C512.783 806.106 515.249 820.964 520.603 834.13C518.243 832.762 515.889 831.4 513.587 829.934C507.369 826.968 499.943 823.514 494.709 819.05C492.579 812.046 489.687 803.304 490.121 795.974C487.047 789.156 471.111 732.53 471.197 725.562C471.371 711.48 507.83 653.648 513.34 634.256L513.587 633.366C496.431 620.278 470.925 610.486 456.289 597.812C448.167 590.776 461.003 578.492 465.299 572.538L508.615 512.892C513.667 505.946 518.523 498.798 524.159 492.308C507.051 477.42 491.039 460.284 475.119 444.086C470.637 439.524 457.649 429.86 462.643 422.532C471.927 408.906 496.445 387.8 508.601 374.58C510.121 373.108 511.905 371.882 513.587 370.6C516.923 366.42 520.281 362.6 524.159 358.898C518.133 351.178 493.871 310.582 492.669 302.852C490.781 290.72 503.531 272.794 508.763 262.39L542.715 196.141C547.921 186.115 554.965 168.815 561.521 160.433Z" fill="#333332"/>
<path d="M505.521 797.552L506.461 798.192C507.471 797.672 507.363 793.766 508.601 792.424C512.783 806.106 515.249 820.964 520.603 834.13C518.243 832.762 515.889 831.4 513.587 829.934C513.539 823.53 507.379 805.198 505.521 797.552Z" fill="#C4C4C4"/>
<path d="M337.151 697.802C344.181 700.254 361.805 714.834 369.051 719.816C400.235 741.254 455.661 781.23 490.123 795.974C489.689 803.304 492.581 812.046 494.711 819.05C483.477 814.43 473.065 807.102 462.601 801C418.909 775.516 365.975 741.886 327.877 709.336C331.513 705.74 334.437 702.148 337.151 697.802Z" fill="#B6AA24"/>
<path d="M470.789 303.398C484.061 322.786 503.403 349.468 513.587 370.6C511.905 371.882 510.121 373.108 508.601 374.58C502.843 364.01 472.445 312.55 470.789 303.398Z" fill="#B6AA24"/>
<path d="M359.659 358.898C383.213 356.584 366.555 434.654 363.833 445.452C391.015 487.706 380.273 510.65 340.237 539.392C357.221 594.95 351.053 621.14 316.091 663.534C324.893 670.468 330.809 681.954 325.459 692.994C318.695 706.954 298.771 703.536 286.201 704.686C279.037 705.342 272.093 707.606 264.831 708.264C247.011 709.882 229.353 708.894 211.517 709.336C181.088 710.09 167.319 716.74 139.827 702.478C172.327 781.044 284.119 719.556 302.107 779.172C312.567 813.842 272.597 840.104 241.745 822.79C224.989 814.818 207.855 807.586 189.395 804.638C176.968 802.654 165.012 802.582 152.92 798.5C90.6501 777.478 65.6989 697.54 107.859 647.188C121.173 631.288 116.202 634.634 122.726 615.816C137.224 574.004 177.173 548.242 215.155 529.87C195.097 507.756 188.649 487.198 202.647 458.872C200.485 453.132 197.134 447.79 194.811 442.08C189.837 429.852 178.044 383.026 187.705 371.662C198.641 358.798 252.043 394.93 261.099 402.754C271.951 398.852 283.365 397.184 294.839 399.138C308.045 381.934 337.723 360.342 359.659 358.898ZM152.337 692.5C150.39 686.528 147.708 680.796 145.935 674.76C131.841 626.808 171.32 583.314 210.571 562.366C220.779 556.918 231.527 552.636 241.745 547.246C237.425 545.072 232.775 543.074 228.725 540.438C191.164 555.684 153.594 581.128 137.241 619.598C126.544 644.76 125.787 677.734 152.337 692.5ZM287.555 785.566C277.525 743.902 185.137 787.786 133.692 725.226C137.259 755.36 210.409 770.03 233.591 771.25C255.817 772.42 271.637 769.084 287.555 785.566ZM343.397 379.652C341.985 384.62 343.479 388.328 348.907 389.184C351.383 387.002 353.519 385.25 356.553 383.88C356.345 380.844 356.565 377.636 356.553 374.58C351.575 375.66 347.817 377.13 343.397 379.652ZM116.799 660.52C96.9321 690.564 97.1581 736.574 124.95 761.986C124.421 760.096 123.423 758.308 122.574 756.54C110.257 735.834 108.999 699.802 120.857 679.526C118.618 673.078 117.45 667.312 116.799 660.52ZM199.648 383.88C199.275 388.344 199.011 392.534 199.648 396.986C214.219 402.296 230.219 410.72 241.745 421.074C244.595 418.228 247.453 415.542 250.589 413.012C233.405 398.326 218.915 393.242 199.648 383.88Z" fill="#333332"/>
<path d="M241.743 547.246C281.811 560.828 292.721 552.098 327.875 547.246L327.939 548.068C330.913 583.066 343.809 599.656 317.457 636.474C311.371 644.978 294.611 661.254 306.787 671.282C320.611 682.67 318.485 690.756 299.107 690.646L289.531 690.55C290.843 681.694 289.903 676.488 284.473 669.164L283.189 667.456L283.395 666.534C286.067 654.83 311.425 614.77 295.373 612.448C287.091 611.25 267.013 662.012 267.197 667.904C267.415 674.938 282.561 681.284 276.923 688.484C272.371 694.298 262.805 692.644 256.367 692.5C257.997 672.738 255.191 659.14 241.977 643.542C210.301 606.152 179.25 620.598 195.43 631.814C199.414 634.578 204.999 635.258 209.481 637.062C233.377 646.68 246.475 669.548 240.351 694.366C220.313 694.346 165.325 697.704 152.335 692.5C150.388 686.528 147.707 680.796 145.933 674.76C131.839 626.808 171.319 583.314 210.569 562.366C220.777 556.918 231.525 552.636 241.743 547.246Z" fill="#C4C4C4"/>
<path d="M302.109 413.012C317.655 399.176 321.337 390.29 343.395 379.652C341.983 384.62 343.477 388.328 348.905 389.184C351.381 387.002 353.517 385.25 356.551 383.88C358.513 405.308 352.573 424.68 348.905 445.452C348.231 447.184 347.571 448.896 347.035 450.676C403.151 506.938 302.123 560.706 240.779 529.934C237.999 528.538 234.265 526.918 232.289 524.446C214.205 513.026 205.945 490.67 213.833 470.616C215.379 466.682 217.389 462.944 218.573 458.872C208.269 439.166 202.507 418.958 199.646 396.986C214.217 402.296 230.217 410.72 241.743 421.074C244.593 418.228 247.451 415.542 250.587 413.012C252.179 415.422 252.365 418.26 252.617 421.074C269.609 411.578 283.661 413.4 302.109 413.012Z" fill="#C4C4C4"/>
<path d="M302.109 413.012C317.655 399.176 321.337 390.29 343.395 379.652C341.983 384.62 343.477 388.328 348.905 389.184C351.381 387.002 353.517 385.25 356.551 383.88C358.513 405.308 352.573 424.68 348.905 445.452C342.309 440.044 337.557 433.052 330.271 427.616C325.571 424.11 318.493 422.542 314.525 418.422C312.961 420.028 311.739 421.722 310.469 423.558C287.419 423.146 263.815 424.172 246.265 440.968C225.839 460.518 214.063 491.488 228.615 517.634C229.775 519.72 231.679 522.17 232.289 524.446C214.205 513.026 205.945 490.67 213.833 470.616C215.379 466.682 217.389 462.944 218.573 458.872C208.269 439.166 202.507 418.958 199.646 396.986C214.217 402.296 230.217 410.72 241.743 421.074C244.593 418.228 247.451 415.542 250.587 413.012C252.179 415.422 252.365 418.26 252.617 421.074C269.609 411.578 283.661 413.4 302.109 413.012Z" fill="white"/>
<path d="M199.646 396.986C214.217 402.296 230.217 410.72 241.743 421.074C244.593 418.228 247.451 415.542 250.587 413.012C252.179 415.422 252.365 418.26 252.617 421.074C241.841 426.054 223.059 447.856 218.573 458.872C208.269 439.166 202.507 418.958 199.646 396.986Z" fill="#FD7069"/>
<path d="M348.905 389.184C351.381 387.002 353.517 385.25 356.551 383.88C358.513 405.308 352.573 424.68 348.905 445.452C342.309 440.044 337.557 433.052 330.271 427.616C325.571 424.11 318.493 422.542 314.525 418.422C323.289 407.174 336.327 396.028 348.905 389.184Z" fill="#FD7069"/>
<path d="M252.618 468.506C256.99 468.318 266.012 466.742 268.886 471.206C270.596 473.86 269.628 479.838 266.67 481.386C264.036 482.762 259.128 480.198 256.368 479.504C253.152 480.374 250.764 482.906 247.592 483.682C238.262 485.96 234.228 470.742 252.618 468.506Z" fill="#333332"/>
<path d="M317.94 461.686C324.33 460.734 333.062 462.468 330.302 470.958C327.752 478.804 319.772 471.99 314.526 475.212C308.612 478.634 303.192 480.022 301.55 470.8C300.21 463.274 313.194 462.374 317.94 461.686Z" fill="#333332"/>
<path d="M294.837 484.946C303.999 486.14 296.399 494.11 293.115 496.786C292.819 501.53 295.629 511.568 290.629 514.43C286.901 514.278 285.885 512.066 285.153 508.74C284.651 505.108 284.085 501.576 283.189 498.018C259.829 487.404 287.571 487.84 294.837 484.946Z" fill="#333332"/>
<path d="M120.856 679.526C128.234 695.296 122.28 706.23 133.692 725.226C137.258 755.36 210.408 770.03 233.59 771.25C255.816 772.42 271.636 769.084 287.554 785.566C287.682 799.624 280.42 809.96 266.218 812.384C254.608 813.814 241.946 806.026 232.29 800.284C216.976 794.684 202.006 790.954 185.997 787.91C168.16 788.476 133.264 778.814 124.949 761.986C124.42 760.096 123.423 758.308 122.573 756.54C110.257 735.834 108.999 699.802 120.856 679.526Z" fill="#4DBBB2"/>
<path d="M122.572 756.54C123.538 755.844 124.008 755.146 125.233 755.296C151.816 780.742 175.035 778.784 185.996 787.91C168.159 788.476 133.263 778.814 124.948 761.986C124.419 760.096 123.422 758.308 122.572 756.54Z" fill="#0E9BA6"/>
<path d="M232.289 800.284C238.249 798.726 261.399 807.506 266.217 812.384C254.607 813.814 241.945 806.026 232.289 800.284Z" fill="#0E9BA6"/>
<path d="M608.48 366.546C604.856 361.986 601.766 356.858 598.556 351.998L581.126 325.358C564.18 299.516 553.584 297.838 576.594 273.362C637.968 208.076 737.198 185.348 819.002 225.356C918.172 273.856 957.16 382.156 923.33 484.966C871.458 642.604 684.698 774.464 548.224 850.824C540.526 855.13 532.534 860.296 524.16 863.138C496.024 850.976 461.266 829.084 435.352 812.84C388.21 783.29 341.794 753.562 299.422 717.282C307.108 716.85 314.044 715.754 321.364 713.326C327.548 717.458 333.326 722.446 339.198 727.016C391.222 767.5 463.642 815.908 524.16 844.784C536.516 839.448 548.434 832.238 559.986 825.372C665.404 762.72 766.378 691.308 843.384 594.422C888.35 537.85 927.062 464.176 918.494 390.284C898.616 218.84 682.91 164.084 580.166 294.478C590.974 311.292 602.216 327.808 613.294 344.444C632.07 372.636 632.88 364.654 609.15 389.918C595.318 404.642 580.866 419.112 567.498 434.228C585.298 449.414 613.126 473.066 628.472 489.782C640.038 502.38 619.742 510.586 609.99 518.576L550.056 566.966C559.66 578.41 598.17 622.66 601.898 632.258C598.674 640.906 592.044 650.176 587.758 658.59L550.056 732.774C551.276 738.324 552.686 742.652 555.544 747.586C555.442 758.788 561.136 776.916 564.692 787.91L569.808 810.206C565.134 813.26 560.332 816.178 555.544 819.05C553.08 811.634 551.374 803.922 549.438 796.352L539.688 757.862C537.646 749.808 536.186 740.08 532.306 732.774C547.598 698.09 567.372 666.082 582.988 632.258C574.908 620.432 559.904 604.108 550.428 593.026C520.664 558.222 525.502 566.336 558.718 539.456C574.448 526.728 596.288 506.628 613.512 496.786C607.132 492.562 601.85 487.43 596.218 482.282L573.576 461.736C566.352 455.274 558.128 449.568 551.36 442.672C540.556 431.662 555.152 423.078 562.5 415.414C576.892 400.4 596.114 382.784 608.038 367.132L608.48 366.546Z" fill="#333332"/>
<path d="M304.029 204.54C339.387 202.534 376.711 209.418 408.547 225.044C424.795 233.02 464.949 255.734 470.789 272.778C462.475 291.718 450.507 271.766 440.047 263.546C339.469 184.511 184.229 220.002 140.279 340.742C135.124 354.906 132.868 369.572 128.475 383.88C129.181 388.992 128.688 394.312 128.573 399.456C127.614 442.412 143.484 505.81 172.8 539.392C167.907 542.682 163.108 545.87 158.424 549.464C71.5592 427.928 109.692 250.418 265.947 210.86C278.469 207.69 291.223 206.066 304.029 204.54Z" fill="#333332"/>
</svg>
