<svg width="1024" height="1024" viewBox="0 0 1024 1024" fill="none" xmlns="http://www.w3.org/2000/svg">
<path d="M719.272 171.252C729.184 170.431 738.918 170.964 748.756 172.255C858.234 186.621 932.662 285.466 918.112 394.572C902.648 510.53 812.652 607.57 725.938 680.296C709.364 694.196 706.76 695.496 693.396 712.438C658.144 757.128 592.548 806.224 545.078 836.474C503.97 862.67 490.786 845.054 454.74 819.434C407.116 785.586 359.646 749.826 324.274 702.75C319.968 697.398 310.178 691.248 304.582 686.778C198.682 602.192 69.0153 447.248 114.231 303.888C147.095 199.692 262.186 148.493 364.026 180.849C421.626 199.15 471.612 245.638 499.092 298.848H525.7C558.988 229.98 641.986 169.468 719.272 171.252ZM493.734 459.752C444.958 454.834 407.988 470.178 394.554 519.02C399.398 518.954 404.968 518.284 409.736 519.02C453.59 524.034 479.554 537.924 511.334 570.01C538.21 538.458 582.504 515.694 624.238 519.02C627.562 518.88 629.752 519.288 628.698 515.378C618.008 475.692 578.986 458.112 540.738 459.058C536.68 459.158 531.612 458.688 527.714 459.752C530.642 469.912 526.228 473.78 517.496 478.676V490.092C532.648 517.126 544.846 492.398 549.944 491.532C569.172 488.262 544.296 536.062 511.334 504.238C488.06 529.018 458.296 503.328 467.874 493.31C476.778 483.994 484.782 515.598 501.348 496.118C505.382 491.374 504.082 484.338 503.428 478.676C495.542 473.846 491.1 469.448 493.734 459.752ZM300.978 658.002C292.276 654.582 279.26 638.356 271.878 631.436C192.841 557.352 101.202 429.918 137.494 314.488C172.129 204.33 304.514 167.632 401.734 216.168C405.56 218.078 413.574 225.008 417.678 223.784C285.886 123.16 96.8319 223.366 120.141 393.826C134.748 500.65 226.22 602.18 306.03 670.6L300.978 658.002ZM264.546 469.794C271.45 486.236 275.558 479.77 289.48 475.26C299.452 472.03 311.856 470.14 322.312 471.274C321.402 467.5 321.244 463.61 320.968 459.752C300.396 456.064 283.132 461.91 264.546 469.794ZM409.736 544.494C446.106 546.742 481.686 562.37 506.286 589.828C510.068 594.052 513.242 598.626 517.496 602.418C552.022 550.546 629.698 524.94 683.94 561.276C687.356 563.566 698.058 573.472 700.882 573.862C687.01 550.052 651.858 533.334 625.146 532.396C586.426 531.04 545.798 549.018 520.67 578.764C516.024 584.264 512.958 593.884 505.584 585.556C478.604 555.098 455.152 536.538 411.598 532.49C408.982 532.912 405.366 533.024 402.756 532.49C402.734 542.062 399.806 543.412 409.736 544.494ZM336.688 510.3C335.24 506.834 333.672 503.372 332.424 499.832C305.93 507.456 307.54 515.858 291.76 525.742C295.658 543.608 304.284 534.562 311.766 526.482C318.424 519.29 327.44 513.528 336.688 510.3ZM366.02 525.742C370.34 524.568 374.762 523.532 379.018 522.158C371.942 513.688 365.952 505.516 359.682 496.48C354.88 496.62 350.05 496.204 345.27 496.48C350.65 507.516 357.932 516.612 366.02 525.742ZM340.478 485.204C345.142 483.52 348.99 483.138 353.912 483.136C352.174 477.596 350.626 472.146 349.734 466.402C345.092 463.902 339.724 462.296 334.744 460.574C336.33 468.884 338.29 477.032 340.478 485.204ZM355.582 271.65C382.098 275.058 389.522 288.31 406.22 295.106L407.016 294.746C390.452 278.488 371.184 265.076 349.734 256.05C326.504 296.156 329.698 344.176 347.48 385.436C338.524 405.224 335.308 425.11 333.406 446.56C338.042 448.23 342.734 449.546 347.48 450.85C347.83 435.624 349.172 420.284 353.94 405.688C360.044 387.002 365.282 389.322 355.602 369.214C343.39 343.846 346.482 297.146 355.582 271.65ZM343.39 554.31C326.436 566.824 313.114 589.174 309.908 609.964C297.168 692.596 415.344 778.262 476.562 818.714C509.16 840.254 514.722 842.756 548.46 818.608C542.648 818.44 528.348 830.918 511.53 829.894C486.92 828.396 403.92 755.494 386.73 738.49C355.09 707.19 318.512 667.206 321.622 619.752C322.628 604.406 328.646 586.678 340.478 576.346C339.802 570.804 347.9 566.272 351.168 562.62C351.668 560.316 347.696 555.402 347.282 552.432C345.88 553.224 345.074 554.168 343.39 554.31Z" fill="#333332"/>
<path d="M343.389 554.31C359.553 538.052 389.341 530.744 411.597 532.49C408.981 532.912 405.365 533.024 402.755 532.49C402.733 542.062 399.805 543.412 409.735 544.494C446.105 546.742 481.685 562.37 506.285 589.828C510.067 594.052 513.241 598.626 517.495 602.418C552.021 550.546 629.697 524.94 683.939 561.276C687.355 563.566 698.057 573.472 700.881 573.862C722.655 610.334 720.977 648.592 698.415 683.656C669.325 728.866 607.507 777.388 561.797 809.67C557.753 812.526 553.123 816.966 548.459 818.608C542.647 818.44 528.347 830.918 511.529 829.894C486.919 828.396 403.919 755.494 386.729 738.49C355.089 707.19 318.511 667.206 321.621 619.752C322.627 604.406 328.645 586.678 340.477 576.346C339.801 570.804 347.899 566.272 351.167 562.62C351.667 560.316 347.695 555.402 347.281 552.432C345.879 553.224 345.073 554.168 343.389 554.31Z" fill="#FD7069"/>
<path d="M343.389 554.31C359.553 538.052 389.341 530.744 411.597 532.49C408.981 532.912 405.365 533.024 402.755 532.49C402.733 542.062 399.805 543.412 409.735 544.494C384.703 546.362 354.603 553.358 340.477 576.346C339.801 570.804 347.899 566.272 351.167 562.62C351.667 560.316 347.695 555.402 347.281 552.432C345.879 553.224 345.073 554.168 343.389 554.31Z" fill="white"/>
<path d="M347.48 660.54C329.372 621.614 342.032 587.506 383.996 571.104C394.152 567.134 397.974 569.064 397.474 580.108C413.32 576.74 434.06 574.548 438.166 594.438C431.89 621.148 394.484 602.95 388.266 626.812C385.914 635.838 393.056 643.982 394.554 652.758C392.098 657.534 386.526 663.698 381.244 658.002C376.346 656.452 372.536 654.774 368.616 651.372C368.5 679.354 341.09 675.97 347.48 660.54Z" fill="white"/>
<path d="M347.48 660.54C329.372 621.614 342.032 587.506 383.996 571.104C394.152 567.134 397.974 569.064 397.474 580.108C326.51 605.41 363.434 648.75 358.872 659.504C356.58 664.91 350.952 663.648 347.48 660.54Z" fill="#333332"/>
<path d="M368.616 651.372C364.372 639.636 361.476 629.644 366.972 617.732C382.696 583.65 433.606 580.086 428.96 595.984C421.55 606.06 359.746 599.98 384.534 648.868C383.632 651.826 382.908 655.406 381.244 658.002C376.346 656.452 372.536 654.774 368.616 651.372Z" fill="#333332"/>
<path d="M679.372 626.066C690.11 626.3 687.732 633.972 685.154 641.678C665.204 701.306 580.642 772.668 522.432 801.46C519.126 801.488 516.346 800.242 515.076 796.898C511.886 788.502 531.442 781.34 536.476 778.128C592.296 742.496 651.324 696.948 673.898 632.558C675.04 629.304 676.258 627.532 679.372 626.066Z" fill="#333332"/>
<path d="M539.855 302.136C543.121 294.918 547.619 288.554 552.129 282.074C594.415 221.314 655.441 182.419 732.099 184.552C777.065 185.803 823.971 206.136 854.923 238.884C859.435 242.366 863.377 247.968 866.931 252.43C974.701 387.824 844.349 558.514 738.825 651.372C733.423 655.662 728.435 660.756 723.295 665.384C730.293 635.174 734.281 615.252 721.219 584.056C712.725 563.77 693.045 539.762 672.317 531.304C673.755 528.8 675.181 526.362 676.873 524.02C682.417 517.082 686.359 509.654 690.565 501.864C695.809 504.236 701.063 506.526 706.395 508.692C713.641 513.734 726.531 525.864 731.815 528.928C736.885 531.87 741.093 526.73 741.917 522.158C738.423 511.292 716.479 499.368 706.395 494.106C702.561 492.288 698.771 491.098 694.657 490.092C697.533 480.048 699.735 470.154 700.881 459.752C713.143 459.862 726.071 459.61 738.169 461.886C748.743 463.876 759.597 472.992 763.969 458.46C756.417 447.602 725.821 446.74 713.471 446.56C709.275 446.492 705.077 446.542 700.881 446.56C702.141 427.296 696.729 408.566 690.565 390.522C692.511 378.7 695.569 367.126 697.293 355.244C703.293 313.882 696.579 279.662 682.333 241.55C676.243 235.146 670.033 240.096 663.293 243.22C624.013 261.424 610.741 279.404 583.295 307.698C574.021 305.646 564.591 303.182 555.149 302.136C549.891 301.534 545.131 301.634 539.855 302.136Z" fill="#4FC9B0"/>
<path d="M539.855 302.136C543.121 294.918 547.619 288.554 552.129 282.074C594.415 221.314 655.441 182.419 732.099 184.552C777.065 185.803 823.971 206.136 854.923 238.884C849.069 238.062 840.929 228.664 835.753 225.052C788.029 191.735 723.565 186.378 669.227 205.364C619.749 222.652 581.779 257.51 555.149 302.136C549.891 301.534 545.131 301.634 539.855 302.136Z" fill="white"/>
<path d="M682.334 241.55C698.54 215.452 710.746 295.852 711.358 302.156C713.212 321.308 713.186 341.964 710.014 360.962C704.684 392.872 701.992 376.094 709.92 407.082C713.1 419.518 714.156 433.736 713.472 446.56C709.276 446.492 705.078 446.542 700.882 446.56C702.142 427.296 696.73 408.566 690.566 390.522C692.512 378.7 695.57 367.126 697.294 355.244C703.294 313.882 696.58 279.662 682.334 241.55Z" fill="white"/>
<path d="M690.566 501.864C695.81 504.236 701.064 506.526 706.396 508.692C713.642 513.734 726.532 525.864 731.816 528.928C736.886 531.87 741.094 526.73 741.918 522.158L742.18 521.016C747.544 518.092 756.644 526.748 753.788 532.178C747.052 544.986 713.798 522.596 703.138 516.264C695.88 514.57 693.942 523.832 690.566 528.826C703.926 535.746 715.766 548.166 723.296 561.13C741.924 588.108 745.984 620.076 738.826 651.372C733.424 655.662 728.436 660.756 723.296 665.384C730.294 635.174 734.282 615.252 721.22 584.056C712.726 563.77 693.046 539.762 672.318 531.304C673.756 528.8 675.182 526.362 676.874 524.02C682.418 517.082 686.36 509.654 690.566 501.864Z" fill="white"/>
<path d="M763.97 458.46L764.234 457.742C779.934 461.122 775.956 477.26 764.56 477.612C752.562 477.982 727.958 469.782 713.472 468.284C711.218 476.956 709.292 485.608 706.396 494.106C702.562 492.288 698.772 491.098 694.658 490.092C697.534 480.048 699.736 470.154 700.882 459.752C713.144 459.862 726.072 459.61 738.17 461.886C748.744 463.876 759.598 472.992 763.97 458.46Z" fill="white"/>
<path d="M300.979 658.002C292.277 654.582 279.261 638.356 271.879 631.436C192.842 557.352 101.203 429.918 137.495 314.488C172.13 204.33 304.515 167.632 401.735 216.168C405.561 218.078 413.575 225.008 417.679 223.784C446.589 241.376 465.349 271.708 483.599 298.848C468.283 302.704 452.327 302.614 437.213 307.698C414.175 282.188 395.671 261.564 362.557 247.164C345.019 239.538 343.799 238.82 334.617 257.042C314.841 296.292 315.759 345.214 332.425 385.436C325.877 407.016 320.423 422.14 320.969 445.544C304.533 445.156 271.333 446.746 260.533 457.784C255.873 462.546 258.977 468.28 264.547 469.794C271.451 486.236 275.559 479.77 289.481 475.26C299.453 472.03 311.857 470.14 322.313 471.274C323.545 476.842 325.491 482.168 326.915 487.672C318.957 490.68 259.989 519.742 291.761 525.742C295.659 543.608 304.285 534.562 311.767 526.482C318.425 519.29 327.441 513.528 336.689 510.3C341.791 517.988 347.243 524.888 353.913 531.304C306.251 558.59 285.543 603.466 300.979 658.002Z" fill="#FECB5B"/>
<path d="M432.102 323.024C468.704 310.714 510.648 310.48 548.786 315.576C601.62 322.636 577.976 331.18 610.296 297.964C627.574 280.21 648.7 262.382 672.318 253.964C673.98 257.924 675.368 262.048 676.874 266.074C686.384 298.248 688.27 329.902 682.76 363.082C677.778 393.07 673.52 377.998 682.314 406.518C686.48 420.034 688.124 434.212 687.968 448.316C681.688 449.502 668.814 451.094 664.972 456.592C654.534 471.526 686.604 462.388 687.968 462.17C685.256 469.652 683.814 477.41 682.334 485.204C677.566 484.104 640.666 477.886 654.974 493.146C657.156 495.474 672.672 496.982 676.874 498.104C672.298 506.916 663.482 516.942 660.802 525.742C647.074 521.282 637.906 520.462 624.238 519.02C627.562 518.88 629.752 519.288 628.698 515.378C618.008 475.692 578.986 458.112 540.738 459.058C536.68 459.158 531.612 458.688 527.714 459.752C519.884 454.19 501.212 454.958 493.734 459.752C444.958 454.834 407.988 470.178 394.554 519.02C399.398 518.954 404.968 518.284 409.736 519.02C399.152 519.448 389.426 519.944 379.018 522.158C371.942 513.688 365.952 505.516 359.682 496.48C368.672 492.324 365.634 482.092 353.912 483.136C352.174 477.596 350.626 472.146 349.734 466.402C369.33 474.782 375.346 461.842 347.48 450.85C347.83 435.624 349.172 420.284 353.94 405.688C360.044 387.002 365.282 389.322 355.602 369.214C343.39 343.846 346.482 297.146 355.582 271.65C382.098 275.058 389.522 288.31 406.22 295.106L407.016 294.746C412.648 299.092 428.448 322.62 431.872 323.124L432.102 323.024Z" fill="#CDD07D"/>
<path d="M432.102 323.024C468.704 310.714 510.648 310.48 548.786 315.576C601.62 322.636 577.976 331.18 610.296 297.964C627.574 280.21 648.7 262.382 672.318 253.964C673.98 257.924 675.368 262.048 676.874 266.074C649.14 271.878 626.318 296.782 608.734 317.574C604.596 322.468 601.176 328.31 596.754 332.89C545.304 323.534 492.954 317.426 441.556 331.41C438.654 329.05 434.002 326.218 432.102 323.024Z" fill="white"/>
<path d="M362.056 305.974C379.056 309.212 393.316 318.08 402.756 332.89C395.72 337.752 388.024 341.05 381.244 346.448C374.748 350.582 367.302 358.92 361.676 361.774C348.802 357.41 358.058 315.542 362.056 305.974Z" fill="#333332"/>
<path d="M652.424 307.698C670.118 305.356 663.562 350.884 660.802 360.012C654.462 355.682 648.96 350.54 642.388 346.448C634.054 341.28 624.697 338.17 616.479 332.89C625.401 321.824 638.27 310.91 652.424 307.698Z" fill="#333332"/>
<path d="M431.495 418.08C431.786 418.037 432.077 418.002 432.369 417.974C432.661 417.947 432.953 417.927 433.245 417.912C433.538 417.899 433.832 417.893 434.125 417.894C434.418 417.894 434.711 417.902 435.003 417.918C435.296 417.933 435.589 417.955 435.881 417.984C436.173 418.013 436.464 418.05 436.753 418.094C437.044 418.138 437.332 418.189 437.619 418.246C437.907 418.305 438.193 418.37 438.477 418.442C438.761 418.514 439.044 418.593 439.325 418.678C439.605 418.763 439.883 418.856 440.159 418.956C440.435 419.055 440.708 419.161 440.979 419.274C441.25 419.386 441.518 419.505 441.783 419.632C442.047 419.757 442.308 419.889 442.567 420.028C442.826 420.167 443.08 420.312 443.331 420.464C443.583 420.615 443.83 420.771 444.073 420.934C444.317 421.098 444.557 421.267 444.793 421.442C445.028 421.618 445.258 421.799 445.485 421.984C445.712 422.171 445.933 422.363 446.149 422.56C446.366 422.757 446.579 422.96 446.787 423.168C446.994 423.375 447.195 423.587 447.391 423.804C447.588 424.023 447.78 424.245 447.965 424.472C448.152 424.699 448.332 424.93 448.507 425.166C448.68 425.401 448.848 425.64 449.011 425.884C449.174 426.128 449.33 426.376 449.481 426.628C449.632 426.88 449.776 427.135 449.915 427.394C450.052 427.653 450.184 427.915 450.309 428.18C450.434 428.445 450.553 428.713 450.665 428.984C450.777 429.255 450.882 429.528 450.981 429.804C451.081 430.08 451.173 430.359 451.257 430.64C451.342 430.92 451.421 431.203 451.493 431.488C451.564 431.772 451.628 432.058 451.685 432.346C451.742 432.633 451.792 432.921 451.835 433.212C451.878 433.503 451.914 433.793 451.943 434.084C451.971 434.376 451.992 434.669 452.007 434.962C452.022 435.255 452.029 435.549 452.029 435.842C452.029 436.135 452.022 436.428 452.009 436.72C451.994 437.013 451.972 437.306 451.943 437.598C451.915 437.89 451.88 438.181 451.837 438.47C451.794 438.761 451.744 439.05 451.687 439.338C451.63 439.625 451.566 439.911 451.495 440.196C451.424 440.48 451.346 440.763 451.261 441.044C451.176 441.324 451.084 441.602 450.985 441.878C450.888 442.154 450.783 442.428 450.671 442.7C450.559 442.971 450.44 443.239 450.315 443.504C450.19 443.769 450.058 444.031 449.921 444.29C449.782 444.549 449.638 444.804 449.487 445.056C449.338 445.308 449.182 445.556 449.019 445.8C448.856 446.044 448.688 446.284 448.513 446.52C448.338 446.756 448.158 446.987 447.973 447.214C447.788 447.441 447.596 447.663 447.399 447.88C447.203 448.099 447.002 448.311 446.795 448.518C446.587 448.726 446.375 448.929 446.159 449.126C445.942 449.323 445.72 449.515 445.493 449.702C445.268 449.889 445.037 450.069 444.801 450.244C444.566 450.42 444.327 450.589 444.083 450.752C443.84 450.916 443.593 451.073 443.341 451.224C443.09 451.376 442.836 451.521 442.577 451.66C442.318 451.799 442.057 451.931 441.793 452.058C441.528 452.183 441.26 452.303 440.989 452.416C440.718 452.529 440.445 452.635 440.169 452.734C439.894 452.834 439.616 452.927 439.335 453.012C439.055 453.099 438.773 453.178 438.489 453.25C438.205 453.322 437.919 453.387 437.631 453.446C437.343 453.503 437.054 453.554 436.765 453.598C436.474 453.642 436.182 453.679 435.889 453.708C435.596 453.739 435.302 453.761 435.009 453.776C434.714 453.792 434.42 453.8 434.127 453.8C433.832 453.801 433.538 453.795 433.243 453.782C432.95 453.767 432.656 453.746 432.363 453.718C432.07 453.69 431.778 453.655 431.487 453.612C431.195 453.571 430.904 453.521 430.615 453.464C430.327 453.407 430.04 453.343 429.755 453.272C429.468 453.201 429.184 453.123 428.903 453.038C428.62 452.954 428.34 452.863 428.063 452.764C427.786 452.665 427.511 452.56 427.239 452.448C426.967 452.336 426.698 452.217 426.431 452.092C426.164 451.967 425.902 451.835 425.643 451.696C425.383 451.557 425.126 451.413 424.873 451.262C424.62 451.111 424.371 450.955 424.127 450.792C423.882 450.628 423.64 450.459 423.403 450.284C423.167 450.109 422.935 449.929 422.707 449.742C422.479 449.555 422.256 449.363 422.037 449.166C421.818 448.969 421.605 448.766 421.397 448.558C421.189 448.35 420.986 448.137 420.787 447.92C420.59 447.701 420.398 447.479 420.211 447.252C420.023 447.024 419.842 446.792 419.667 446.556C419.491 446.32 419.321 446.079 419.157 445.834C418.993 445.59 418.836 445.342 418.685 445.09C418.533 444.837 418.388 444.581 418.249 444.322C418.11 444.062 417.978 443.799 417.851 443.532C417.724 443.267 417.605 442.998 417.493 442.726C417.38 442.454 417.274 442.179 417.175 441.902C417.075 441.625 416.982 441.345 416.897 441.064C416.812 440.783 416.733 440.499 416.661 440.214C416.59 439.929 416.526 439.641 416.467 439.352C416.41 439.063 416.36 438.773 416.317 438.482C416.274 438.191 416.238 437.899 416.209 437.606C416.18 437.313 416.158 437.019 416.145 436.726C416.13 436.431 416.123 436.137 416.123 435.842C416.123 435.549 416.13 435.255 416.145 434.96C416.16 434.665 416.181 434.372 416.209 434.08C416.238 433.787 416.275 433.495 416.319 433.204C416.362 432.912 416.412 432.622 416.469 432.334C416.528 432.045 416.592 431.757 416.663 431.472C416.735 431.187 416.814 430.903 416.899 430.622C416.986 430.339 417.078 430.06 417.177 429.784C417.277 429.507 417.384 429.232 417.497 428.96C417.609 428.688 417.728 428.419 417.855 428.154C417.982 427.887 418.114 427.624 418.253 427.364C418.392 427.105 418.537 426.85 418.689 426.598C418.841 426.345 418.999 426.096 419.163 425.852C419.326 425.608 419.495 425.367 419.671 425.13C419.847 424.894 420.028 424.663 420.215 424.436C420.403 424.208 420.596 423.985 420.793 423.768C420.992 423.551 421.195 423.338 421.403 423.13C421.612 422.922 421.826 422.719 422.045 422.522C422.262 422.325 422.485 422.133 422.713 421.946C422.941 421.761 423.174 421.58 423.411 421.404C423.648 421.229 423.889 421.061 424.133 420.898C424.378 420.735 424.628 420.579 424.881 420.428C425.133 420.276 425.389 420.131 425.649 419.994C425.909 419.855 426.172 419.723 426.439 419.598C426.706 419.473 426.975 419.354 427.247 419.242C427.519 419.13 427.794 419.025 428.071 418.928C428.35 418.829 428.63 418.737 428.911 418.652C429.194 418.568 429.478 418.491 429.763 418.42C430.048 418.349 430.336 418.285 430.625 418.228C430.914 418.172 431.204 418.123 431.495 418.08Z" fill="#333332"/>
<path d="M585.33 417.922C585.618 417.87 585.908 417.826 586.198 417.79C586.489 417.753 586.78 417.723 587.072 417.7C587.364 417.676 587.656 417.66 587.948 417.652C588.242 417.644 588.534 417.643 588.826 417.648C589.12 417.655 589.412 417.668 589.704 417.688C589.996 417.708 590.288 417.735 590.578 417.77C590.869 417.805 591.159 417.846 591.448 417.894C591.736 417.943 592.024 417.999 592.31 418.062C592.596 418.125 592.88 418.195 593.162 418.272C593.445 418.349 593.726 418.433 594.005 418.524C594.283 418.615 594.559 418.712 594.832 418.816C595.106 418.92 595.376 419.031 595.644 419.148C595.914 419.265 596.179 419.389 596.44 419.52C596.703 419.651 596.962 419.788 597.216 419.932C597.472 420.075 597.724 420.224 597.972 420.38C598.22 420.536 598.464 420.697 598.704 420.864C598.944 421.032 599.18 421.206 599.412 421.386C599.643 421.565 599.87 421.749 600.092 421.94C600.315 422.131 600.533 422.326 600.746 422.526C600.958 422.727 601.166 422.934 601.368 423.146C601.571 423.357 601.769 423.573 601.962 423.794C602.154 424.015 602.34 424.241 602.52 424.47C602.702 424.701 602.877 424.935 603.046 425.174C603.217 425.413 603.381 425.655 603.539 425.902C603.696 426.149 603.847 426.399 603.992 426.654C604.138 426.907 604.276 427.165 604.408 427.426C604.542 427.687 604.669 427.951 604.789 428.218C604.907 428.486 605.02 428.756 605.126 429.028C605.233 429.301 605.333 429.577 605.427 429.854C605.519 430.133 605.604 430.413 605.684 430.694C605.763 430.977 605.835 431.261 605.901 431.546C605.966 431.831 606.024 432.118 606.074 432.406C606.125 432.694 606.169 432.983 606.206 433.274C606.244 433.565 606.274 433.856 606.296 434.148C606.318 434.44 606.333 434.732 606.342 435.024C606.35 435.317 606.351 435.611 606.344 435.904C606.338 436.196 606.324 436.488 606.304 436.78C606.284 437.072 606.257 437.363 606.222 437.654C606.186 437.945 606.144 438.235 606.096 438.524C606.047 438.812 605.991 439.099 605.927 439.386C605.864 439.671 605.794 439.955 605.716 440.238C605.639 440.521 605.555 440.801 605.464 441.08C605.374 441.357 605.276 441.633 605.17 441.908C605.066 442.181 604.956 442.452 604.838 442.72C604.72 442.988 604.595 443.253 604.464 443.514C604.334 443.777 604.196 444.035 604.052 444.29C603.91 444.546 603.76 444.798 603.604 445.046C603.448 445.293 603.286 445.536 603.118 445.776C602.95 446.016 602.777 446.252 602.598 446.484C602.418 446.715 602.233 446.941 602.042 447.164C601.852 447.387 601.656 447.604 601.454 447.816C601.253 448.029 601.047 448.237 600.836 448.44C600.624 448.643 600.408 448.84 600.186 449.032C599.965 449.224 599.74 449.41 599.51 449.59C599.28 449.771 599.045 449.947 598.807 450.116C598.567 450.285 598.323 450.449 598.076 450.606C597.83 450.763 597.579 450.915 597.324 451.06C597.07 451.204 596.812 451.343 596.552 451.476C596.291 451.608 596.026 451.734 595.758 451.854C595.492 451.973 595.222 452.085 594.948 452.192C594.675 452.297 594.4 452.397 594.122 452.49C593.845 452.582 593.565 452.667 593.282 452.746C593.001 452.826 592.717 452.898 592.43 452.962C592.145 453.027 591.858 453.085 591.57 453.136C591.282 453.187 590.993 453.23 590.703 453.266C590.413 453.303 590.122 453.333 589.83 453.356C589.538 453.377 589.246 453.392 588.954 453.4C588.662 453.408 588.37 453.409 588.078 453.404C587.785 453.397 587.492 453.383 587.2 453.362C586.91 453.342 586.619 453.314 586.328 453.278C586.038 453.243 585.748 453.201 585.46 453.152C585.172 453.103 584.885 453.047 584.598 452.984C584.313 452.921 584.03 452.851 583.748 452.774C583.466 452.697 583.186 452.613 582.908 452.522C582.63 452.43 582.354 452.332 582.08 452.228C581.807 452.124 581.537 452.013 581.27 451.894C581.002 451.777 580.738 451.653 580.476 451.522C580.214 451.391 579.955 451.254 579.7 451.11C579.446 450.967 579.194 450.818 578.946 450.662C578.7 450.506 578.456 450.345 578.216 450.178C577.976 450.01 577.741 449.836 577.51 449.656C577.28 449.477 577.053 449.293 576.83 449.102C576.609 448.913 576.392 448.717 576.178 448.516C575.966 448.315 575.759 448.109 575.557 447.898C575.354 447.686 575.157 447.47 574.966 447.25C574.774 447.029 574.588 446.803 574.406 446.574C574.226 446.343 574.052 446.109 573.882 445.87C573.713 445.631 573.55 445.389 573.393 445.142C573.235 444.895 573.084 444.645 572.938 444.392C572.793 444.139 572.654 443.881 572.522 443.62C572.39 443.359 572.264 443.095 572.144 442.828C572.026 442.561 571.913 442.291 571.807 442.018C571.7 441.746 571.6 441.471 571.508 441.194C571.415 440.917 571.329 440.637 571.25 440.356C571.172 440.075 571.1 439.791 571.034 439.506C570.969 439.221 570.911 438.934 570.86 438.646C570.81 438.358 570.766 438.069 570.729 437.778C570.691 437.489 570.662 437.198 570.64 436.906C570.618 436.614 570.602 436.322 570.592 436.03C570.584 435.738 570.584 435.446 570.591 435.154C570.596 434.861 570.609 434.569 570.63 434.278C570.65 433.986 570.678 433.695 570.712 433.404C570.747 433.113 570.789 432.824 570.838 432.536C570.886 432.248 570.942 431.961 571.006 431.674C571.069 431.389 571.139 431.105 571.216 430.824C571.292 430.541 571.376 430.261 571.466 429.982C571.557 429.705 571.654 429.429 571.758 429.156C571.864 428.883 571.975 428.612 572.092 428.344C572.21 428.076 572.334 427.811 572.464 427.55C572.594 427.289 572.73 427.03 572.874 426.774C573.017 426.519 573.166 426.268 573.322 426.02C573.477 425.772 573.639 425.529 573.807 425.29C573.975 425.05 574.148 424.814 574.326 424.582C574.505 424.351 574.69 424.125 574.88 423.902C575.07 423.679 575.265 423.462 575.466 423.25C575.666 423.038 575.872 422.831 576.084 422.628C576.295 422.425 576.51 422.228 576.73 422.036C576.952 421.844 577.177 421.657 577.406 421.476C577.636 421.295 577.87 421.119 578.108 420.95C578.347 420.781 578.59 420.617 578.836 420.46C579.083 420.303 579.333 420.151 579.586 420.006C579.84 419.861 580.097 419.722 580.358 419.59C580.618 419.457 580.883 419.33 581.151 419.21C581.417 419.091 581.686 418.979 581.958 418.872C582.23 418.765 582.505 418.665 582.782 418.572C583.06 418.479 583.339 418.393 583.62 418.314C583.902 418.235 584.185 418.163 584.47 418.098C584.756 418.031 585.042 417.973 585.33 417.922Z" fill="#333332"/>
<path d="M493.733 459.752C501.211 454.958 519.883 454.19 527.713 459.752C530.641 469.912 526.227 473.78 517.495 478.676V490.092C532.647 517.126 544.845 492.398 549.943 491.532C569.171 488.262 544.295 536.062 511.333 504.238C488.059 529.018 458.295 503.328 467.873 493.31C476.777 483.994 484.781 515.598 501.347 496.118C505.381 491.374 504.081 484.338 503.427 478.676C495.541 473.846 491.099 469.448 493.733 459.752Z" fill="#333332"/>
</svg>
