<svg width="1036" height="1036" viewBox="0 0 1036 1036" fill="none" xmlns="http://www.w3.org/2000/svg">
<path d="M698.633 187.099C725.836 185.66 724.698 293.796 724.461 310.312C749.025 360.227 755.096 407.078 708.206 445.378C738.08 467.58 801.212 530.205 786.975 573.466C778.685 598.648 746.96 610.956 725.135 622.072C729.628 642.506 737 651.732 755.544 662.071C792.129 682.472 826.715 684.094 862.154 659.97C871.874 653.352 880.987 644.221 892.571 641.054C923.461 632.605 934.671 668.624 918.079 695.306C878.758 758.547 812.742 769.525 750.753 731.279C747.861 756.891 759.554 797.05 753.242 818.069C745.884 842.57 716.782 857.332 692.56 849.749C671.913 843.283 663.414 821.448 653.992 804.063L636.271 771.488C607.275 762.352 573.347 765.51 543.705 768.754C548.445 781.175 553.262 794.141 553.688 807.567C555.192 855.184 480.471 866.761 459.006 820.577C447.589 796.011 434.255 729.281 434.288 704.608C431.473 666.686 437.759 629.901 448.382 593.606C423.57 592.73 398.619 593.005 373.787 592.718L347.485 592.404C340.427 592.325 332.869 591.658 325.953 593.24C311.864 605.683 331.142 646.325 314.737 660.229C299.301 673.312 284.365 654.222 273.937 644.513L199.33 574.788C190.466 566.503 180.965 558.48 173.388 548.972C157.193 549.005 139.822 547.21 123.801 549.86C121.372 550.261 106.289 558.788 107.545 550.254C108.219 545.672 115.104 541.868 118.669 539.724C107.471 527.177 94.5784 517.879 122.66 524.77C134.756 527.739 157.459 525.667 171.106 526.408C177.205 505.994 228.399 468.725 245.876 453.324L277.262 425.655C285.266 418.601 295.249 406.361 307.019 406.968C334.672 408.396 319.817 451.328 323.376 471.412C325.728 484.688 356.781 480.296 367.433 480.388L426.856 481.045C435.598 470.019 445.486 458.855 457.216 450.957C404.79 427.277 393.462 375.277 417.933 325.861C421.553 318.549 426.281 311.806 429.619 304.365L429.975 303.561C432.364 275.667 429.403 206.214 445.609 187.942C454.877 177.491 467.168 194.085 473.03 200.441C487.899 216.562 503.174 238.756 518.237 253.038C546.775 247.743 575.032 246.11 603.862 250.198C614.846 251.756 625.796 255.449 636.843 255.877C654.626 238.158 677.492 197.207 698.633 187.099ZM501.519 842.914C494.273 835.95 485.799 839.302 477.553 825.638C469.2 811.793 461.654 777.195 457.772 760.33C449.51 718.586 445.68 647.148 462.603 606.329C463.524 601.785 464.815 598.008 466.816 593.824C463.074 593.701 459.27 593.441 455.533 593.691C434.609 657.14 436.926 718.48 454.069 781.8C461.549 809.434 465.784 838.892 501.519 842.914ZM309.941 423.114C312.084 422.973 314.16 423.06 316.3 423.189C313.716 397.729 283.494 429.94 278.382 434.372L196.578 505.647C182.759 517.715 166.508 532.432 185.015 551.41C187.558 543.065 183.576 534.753 190.391 527.413C215.931 499.901 253.16 472.556 281.602 446.555C290.379 438.53 299.731 429.298 309.941 423.114ZM424.196 400.95C433.334 401.289 441.283 402.459 449.047 396.612C436.753 393.981 421.212 398.392 420.819 386.751C415.708 367.999 431.621 327.634 444.682 315.369C446.909 279.889 442.637 230.999 457.963 199.085L456.265 196.853C449.189 184.765 447.551 200.356 445.859 207.438C437.934 240.615 438.087 273.233 437.484 306.928C421.308 330.159 408.325 360.55 413.589 389.258C416.851 407.061 437.971 435.859 432.812 422.713C428.894 416.058 426.188 408.386 424.196 400.95ZM468.373 461.807C477.825 466.803 507.254 481.301 515.834 477.654C519.038 474.059 515.903 470.894 513.037 468.402C505.468 472.333 471.137 457.639 464.4 453.939C453.959 461.913 443.36 470.594 435.429 481.146L448.048 481.294C451.769 480.068 464.792 465.445 468.373 461.807ZM324.235 484.915C326.45 500.278 365.299 495.178 377.566 495.322L494.298 496.705C500.283 496.778 506.781 497.498 512.7 496.908C502.394 484.322 486.039 488.695 471.643 488.465L353.113 487.067C343.738 486.953 333.256 487.727 324.235 484.915ZM707.233 527.838C704.211 532.261 698.327 534.236 693.914 536.986L672.084 550.627C652.589 562.83 623.678 581.169 626.817 608.087C629.262 629.058 651.115 642.82 671.28 639.174C655.079 634.21 636.736 630.938 635.326 608.264C633.56 579.881 677.352 556.584 699.751 543.787C707.483 539.37 717.035 538.4 714.897 527.929C712.724 526.609 710.798 525.39 708.182 525.549L707.372 526.204L707.233 527.838ZM672.719 809.383C664.631 798.78 658.506 786.499 650.613 775.662C649.026 775.059 647.443 774.422 645.838 773.873C657.482 796.996 675.508 838.775 699.591 845.25C698.809 842.951 679.306 826.643 672.719 809.383ZM171.023 533.423L136.544 532.961C130.672 532.857 124.599 532.252 118.75 532.807C128.133 537.51 124.29 540.659 126.76 542.558C141.338 541.824 156.345 541.417 170.92 542.211C171.18 539.28 170.921 536.356 171.023 533.423ZM645.473 274.41C653.128 257.597 690.633 216.169 703.292 201.978L704.736 199.783C703.72 197.538 702.773 195.603 701.193 193.674C674.104 210.42 657.66 249.802 639.622 264.113C628.819 263.653 618.244 259.634 607.543 257.944C576.269 253.003 543.951 254.198 513.149 261.609C511.07 262.547 509.019 263.49 506.86 264.233C507.745 267.322 508.741 270.24 510.737 272.821C535.45 260.626 618.331 261.019 645.473 274.41ZM910.111 676.945C912.149 679.155 914.308 681.311 916.031 683.781C921.109 672.412 921.645 659.208 910.553 651.136C877.727 627.252 841.907 734.557 734.863 657.079C735.92 661.414 737.286 664.842 739.559 668.673C781.955 699.763 831.339 700.536 874.643 669.444C893.258 656.077 909.173 645.246 910.111 676.945Z" fill="#010101"/>
<path d="M456.264 196.853C466.574 198.808 486.878 227.559 493.872 236.126C498.623 241.946 511.895 254.59 513.149 261.609C511.069 262.546 509.018 263.49 506.859 264.233C507.745 267.322 508.74 270.24 510.736 272.821C535.45 260.626 618.331 261.019 645.473 274.41C653.128 257.597 690.633 216.169 703.291 201.978L704.735 199.783C714.005 218.293 717.519 262.555 717.722 283.731C717.966 309.346 714.06 303.397 724.561 326.412C732.29 343.349 736.458 361.013 735.659 379.707C730.997 380.75 726.361 381.904 721.721 383.047C714.682 384.914 684.35 388.123 687.647 395.876C692.54 399.594 716.375 392.18 721.635 390.298C726.182 388.898 730.83 387.737 735.57 387.241C732.573 406.012 726.506 416.87 714.501 431.337C706.775 437.218 691.574 449.95 682.197 450.97C679.944 451.757 653.631 457.411 664.962 462.987C671.267 462.931 689.246 456.357 695.487 453.766C695.927 459.578 701.586 469.533 703.784 475.588C709.85 492.284 714.124 510.136 714.896 527.928C712.723 526.609 710.798 525.39 708.182 525.549L707.372 526.204L707.232 527.838C706.103 517.142 690.968 530.838 687.203 533.076C651.474 554.306 593.175 587.647 632.373 634.903C668.396 660.787 684.362 640.892 718.845 626.926C720.651 632.676 722.553 638.324 724.877 643.892C731.307 669.714 743.785 715.744 742.808 742.448C746.123 762.727 751.721 812.12 741.169 826.657C732.044 839.224 715 845.912 699.591 845.25C698.808 842.95 679.305 826.643 672.718 809.382C664.63 798.78 658.505 786.499 650.612 775.661C659.79 776.446 681.383 792.753 680.989 778.794C632.93 754.551 563.799 753.854 513.859 770.044C511.564 769.585 509.371 769.155 507.173 768.323L506.844 767.498C505.218 766.708 493.907 768.353 490.936 768.266C477.914 767.886 464.215 760.24 457.772 760.33C449.509 718.586 445.679 647.148 462.602 606.329C463.524 601.785 464.814 598.008 466.816 593.823C467.888 593.484 468.559 593.54 469.643 593.589C518.266 595.76 522.041 587.266 522.556 540.547L522.928 506.265C519.104 480.854 503.345 481.805 484.449 481.72L448.047 481.294C451.768 480.068 464.792 465.445 468.373 461.807C477.824 466.803 507.253 481.301 515.833 477.654C519.038 474.059 515.903 470.894 513.036 468.402C512.125 459.469 502.443 460.61 495.431 458.398C477.67 452.794 447.905 441.508 435.339 428.045C439.377 426.878 473.282 417.458 463.546 413.322C458.612 411.228 438.063 420.018 432.811 422.713C428.893 416.058 426.188 408.386 424.195 400.95C433.334 401.289 441.283 402.459 449.046 396.612C436.752 393.981 421.211 398.392 420.818 386.751C415.707 367.999 431.62 327.634 444.682 315.369C446.908 279.889 442.637 230.999 457.962 199.085L456.264 196.853Z" fill="#5762EE"/>
<path d="M704.735 199.783C714.006 218.293 717.52 262.555 717.722 283.731C717.966 309.346 714.06 303.397 724.561 326.413C732.29 343.349 736.458 361.013 735.66 379.707C730.997 380.75 726.361 381.904 721.721 383.047C721.466 360.926 713.735 342.478 703.277 323.439C682.738 294.413 666.008 293.096 645.473 274.41C653.128 257.597 690.633 216.169 703.291 201.978L704.735 199.783Z" fill="#FC625D"/>
<path d="M742.809 742.448C746.124 762.727 751.722 812.12 741.17 826.657C732.045 839.224 715.001 845.911 699.592 845.25C698.809 842.95 679.306 826.643 672.719 809.382C664.631 798.78 658.506 786.499 650.613 775.661C659.791 776.446 681.384 792.753 680.99 778.794C682.441 776.873 683.338 774.227 684.424 772.056L684.953 772.006C684.231 788.401 674.484 782.641 669.638 794.045L669.671 793.751C665.425 807.434 672.84 801.337 672.719 809.382C678.14 812.246 680.601 806.891 684.762 806.8C690.248 806.681 695.549 809.366 701.032 808.776C704.679 808.383 717.904 796.142 729.002 793.507L728.992 792.837L729.644 793.159L729.077 792.424C731.851 784.48 740.528 780.144 743.457 771.986C744.944 767.839 742.297 749.271 742.809 742.448Z" fill="#14BBAB"/>
<path d="M522.929 506.265C542.671 517.571 536.916 563.916 533.958 582.515C531.645 597.054 522.858 606.591 508.115 606.868C505.405 606.918 463.179 606.684 462.603 606.329C463.524 601.785 464.815 598.008 466.816 593.824C467.889 593.484 468.56 593.54 469.643 593.589C518.267 595.76 522.042 587.266 522.557 540.547L522.929 506.265Z" fill="#14BBAB"/>
<path d="M507.174 768.324C511.355 759.066 524.272 757.912 533.006 755.751C576.225 745.064 644.692 748.074 684.424 772.056C683.338 774.227 682.441 776.873 680.99 778.794C632.931 754.552 563.8 753.854 513.86 770.044C511.565 769.585 509.372 769.156 507.174 768.324Z" fill="white"/>
<path d="M632.372 634.903C668.396 660.787 684.361 640.892 718.844 626.926C720.651 632.675 722.552 638.324 724.877 643.892C700.961 652.719 674.547 678.221 649.03 659.613C641.754 654.307 633.776 643.964 632.372 634.903Z" fill="#14BBAB"/>
<path d="M456.266 196.853C466.575 198.808 486.88 227.559 493.873 236.126C498.625 241.946 511.897 254.59 513.15 261.609C511.071 262.546 509.019 263.49 506.861 264.233C504.213 264.674 501.889 265.73 499.434 266.768C482.533 246.743 472.582 220.796 457.963 199.085L456.266 196.853Z" fill="#2940B7"/>
<path d="M721.636 390.298C726.183 388.898 730.831 387.737 735.571 387.241C732.574 406.013 726.507 416.87 714.502 431.337C706.776 437.218 691.575 449.95 682.198 450.97C690.169 445.821 702.608 435.359 708.413 427.813C710.067 428.347 711.716 428.908 713.389 429.38C716.206 426.719 715.637 425.146 713.474 422.17C715.623 411.241 720.554 401.645 721.636 390.298Z" fill="#FC625D"/>
<path d="M708.413 427.813C699.523 424.726 687.678 422.19 679.667 417.611C677.734 416.506 676.018 413.066 678.731 411.82C683.272 409.733 708.081 419.69 713.474 422.17C715.637 425.146 716.206 426.719 713.389 429.38C711.716 428.908 710.067 428.347 708.413 427.813Z" fill="#010101"/>
<path d="M420.82 386.751C424.748 385.561 464.711 387.62 456.2 395.911C454.049 398.005 451.646 397.121 449.048 396.612C436.754 393.981 421.213 398.392 420.82 386.751Z" fill="#010101"/>
<path d="M574.672 374.848C578.016 374.856 599.882 372.607 596.941 380.145C594.53 386.321 585.579 391.17 579.868 393.563C579.744 403.412 587.277 414.21 597.112 411.333C603.773 409.386 601.623 401.758 604.779 397.519C608.218 392.897 611.981 398.942 610.82 404.935C607.839 420.308 587.562 424.168 579.664 410.859L577.605 408.879C574.368 408.581 567.707 416.467 563.595 417.948C552.092 422.097 535.772 408.384 541.268 397.04C549.711 390.249 549.115 420.744 564.303 409.672C569.813 405.653 571.196 399.797 572.133 393.471C552.294 384.603 550.398 374.862 574.672 374.848Z" fill="#010101"/>
<path d="M509.756 335.122C510.138 335.098 510.52 335.087 510.902 335.087C511.284 335.089 511.666 335.104 512.048 335.131C512.429 335.157 512.809 335.195 513.189 335.246C513.567 335.299 513.943 335.363 514.318 335.44C514.692 335.516 515.064 335.605 515.433 335.705C515.802 335.807 516.166 335.92 516.527 336.046C516.889 336.17 517.246 336.307 517.599 336.456C517.95 336.605 518.297 336.765 518.639 336.937C518.981 337.108 519.317 337.29 519.647 337.485C519.976 337.678 520.299 337.882 520.616 338.096C520.932 338.312 521.24 338.538 521.542 338.773C521.843 339.009 522.136 339.254 522.421 339.508C522.706 339.763 522.982 340.027 523.25 340.299C523.517 340.572 523.776 340.854 524.026 341.145C524.274 341.434 524.514 341.732 524.743 342.037C524.973 342.344 525.192 342.657 525.4 342.977C525.609 343.297 525.807 343.624 525.995 343.958C526.182 344.291 526.358 344.63 526.523 344.974C526.688 345.319 526.841 345.669 526.983 346.024C527.125 346.38 527.255 346.74 527.372 347.103C527.49 347.467 527.597 347.834 527.691 348.204C527.784 348.575 527.865 348.948 527.936 349.325C528.005 349.701 528.061 350.078 528.104 350.457C528.149 350.838 528.181 351.219 528.201 351.601C528.219 351.982 528.225 352.364 528.219 352.747C528.213 353.129 528.195 353.511 528.164 353.892C528.133 354.273 528.089 354.653 528.032 355.031C527.976 355.409 527.908 355.785 527.827 356.158C527.745 356.532 527.652 356.902 527.546 357.269C527.44 357.637 527.323 358.001 527.193 358.361C527.063 358.721 526.922 359.076 526.768 359.426C526.616 359.776 526.452 360.121 526.276 360.461C526.1 360.8 525.914 361.133 525.716 361.46C525.518 361.787 525.309 362.107 525.091 362.421C524.871 362.734 524.642 363.04 524.404 363.339C524.165 363.637 523.916 363.928 523.658 364.21C523.4 364.491 523.133 364.764 522.856 365.028C522.58 365.293 522.295 365.548 522.001 365.792C521.709 366.038 521.408 366.274 521.099 366.5C520.791 366.726 520.475 366.941 520.153 367.145C519.829 367.35 519.5 367.544 519.164 367.727C518.829 367.91 518.487 368.082 518.14 368.243C517.793 368.403 517.441 368.552 517.085 368.689C516.728 368.826 516.367 368.952 516.002 369.066C515.637 369.179 515.268 369.28 514.896 369.369C514.525 369.458 514.15 369.535 513.774 369.6C513.397 369.665 513.018 369.717 512.638 369.756C512.257 369.796 511.876 369.823 511.495 369.837C511.213 369.847 510.931 369.851 510.648 369.849C510.366 369.846 510.084 369.836 509.803 369.819C509.522 369.801 509.241 369.777 508.96 369.747C508.679 369.716 508.399 369.678 508.121 369.635C507.843 369.59 507.565 369.539 507.289 369.481C507.012 369.423 506.737 369.359 506.465 369.289C506.191 369.218 505.92 369.14 505.651 369.056C505.382 368.971 505.115 368.88 504.851 368.782C504.585 368.686 504.322 368.583 504.062 368.473C503.802 368.362 503.546 368.246 503.292 368.124C503.038 368.001 502.787 367.872 502.539 367.737C502.291 367.602 502.047 367.461 501.806 367.314C501.565 367.168 501.327 367.015 501.093 366.858C500.86 366.699 500.631 366.535 500.405 366.366C500.179 366.196 499.958 366.022 499.741 365.842C499.523 365.661 499.311 365.475 499.103 365.284C498.895 365.094 498.691 364.899 498.492 364.699C498.295 364.498 498.101 364.293 497.912 364.082C497.723 363.873 497.541 363.659 497.363 363.44C497.184 363.22 497.012 362.997 496.845 362.77C496.677 362.544 496.515 362.313 496.359 362.078C496.203 361.843 496.053 361.604 495.91 361.36C495.764 361.119 495.626 360.873 495.494 360.624C495.361 360.374 495.235 360.122 495.115 359.867C494.995 359.611 494.882 359.353 494.774 359.093C494.667 358.832 494.565 358.568 494.47 358.301C494.375 358.036 494.287 357.768 494.205 357.498C494.124 357.228 494.049 356.956 493.981 356.683C493.912 356.409 493.85 356.134 493.796 355.857C493.741 355.581 493.692 355.303 493.65 355.023C493.609 354.744 493.575 354.464 493.546 354.184C493.519 353.902 493.498 353.621 493.484 353.339C493.47 353.058 493.463 352.776 493.462 352.493C493.461 352.21 493.468 351.928 493.482 351.647C493.495 351.365 493.515 351.084 493.542 350.804C493.569 350.523 493.603 350.243 493.644 349.963C493.684 349.683 493.732 349.405 493.786 349.129C493.84 348.852 493.901 348.577 493.969 348.303C494.037 348.029 494.11 347.756 494.191 347.485C494.273 347.216 494.361 346.947 494.455 346.68C494.548 346.415 494.649 346.151 494.756 345.89C494.862 345.628 494.975 345.37 495.095 345.116C495.214 344.86 495.339 344.607 495.47 344.356C495.602 344.107 495.741 343.861 495.885 343.619C496.028 343.375 496.177 343.136 496.333 342.9C496.488 342.665 496.649 342.433 496.815 342.206C496.982 341.978 497.154 341.755 497.331 341.536C497.509 341.315 497.692 341.1 497.881 340.89C498.069 340.679 498.261 340.473 498.458 340.273C498.657 340.071 498.86 339.875 499.067 339.684C499.275 339.493 499.487 339.307 499.704 339.126C499.921 338.946 500.142 338.77 500.366 338.599C500.591 338.43 500.82 338.266 501.054 338.108C501.287 337.948 501.524 337.794 501.766 337.648C502.006 337.5 502.25 337.358 502.497 337.222C502.745 337.087 502.996 336.958 503.249 336.835C503.503 336.712 503.759 336.595 504.019 336.484C504.278 336.373 504.54 336.268 504.805 336.17C505.07 336.071 505.337 335.98 505.607 335.895C505.876 335.81 506.146 335.732 506.419 335.661C506.692 335.589 506.966 335.524 507.242 335.464C507.518 335.406 507.796 335.355 508.074 335.31C508.353 335.265 508.633 335.227 508.913 335.196C509.193 335.165 509.474 335.14 509.756 335.122Z" fill="#010101"/>
<path d="M504.097 341.872C515.07 339.493 510.916 349.307 505.801 354.101C497.055 357.242 497.456 345.668 504.097 341.872Z" fill="white"/>
<path d="M639.12 338.414C639.483 338.285 639.849 338.168 640.218 338.063C640.589 337.958 640.962 337.865 641.339 337.786C641.715 337.706 642.093 337.639 642.474 337.585C642.856 337.53 643.238 337.488 643.621 337.459C644.006 337.43 644.39 337.414 644.774 337.41C645.158 337.407 645.543 337.416 645.928 337.438C646.312 337.46 646.695 337.494 647.077 337.542C647.459 337.59 647.838 337.651 648.215 337.723C648.593 337.795 648.968 337.881 649.34 337.98C649.712 338.078 650.081 338.188 650.446 338.309C650.811 338.432 651.172 338.567 651.527 338.712C651.883 338.859 652.233 339.017 652.578 339.187C652.924 339.357 653.263 339.539 653.595 339.731C653.929 339.923 654.256 340.126 654.576 340.34C654.895 340.555 655.207 340.779 655.512 341.013C655.816 341.249 656.113 341.494 656.402 341.748C656.691 342.002 656.97 342.266 657.24 342.54C657.512 342.814 657.773 343.095 658.025 343.385C658.277 343.676 658.52 343.975 658.752 344.282C658.983 344.588 659.205 344.903 659.417 345.226C659.628 345.547 659.828 345.875 660.017 346.209C660.207 346.544 660.385 346.885 660.551 347.231C660.718 347.578 660.873 347.931 661.015 348.289C661.159 348.645 661.291 349.006 661.41 349.371C661.529 349.738 661.635 350.108 661.729 350.481C661.823 350.853 661.906 351.229 661.976 351.608C662.045 351.986 662.102 352.366 662.146 352.748C662.19 353.13 662.221 353.513 662.241 353.898C662.259 354.282 662.264 354.666 662.257 355.052C662.25 355.436 662.23 355.82 662.198 356.203C662.165 356.587 662.12 356.969 662.062 357.35C662.004 357.73 661.934 358.108 661.851 358.483C661.768 358.858 661.672 359.23 661.564 359.6C661.457 359.969 661.337 360.335 661.205 360.696C661.072 361.058 660.928 361.415 660.772 361.767C660.616 362.118 660.448 362.464 660.268 362.805C660.089 363.145 659.899 363.479 659.698 363.806C659.497 364.135 659.284 364.455 659.06 364.769C658.838 365.082 658.606 365.388 658.364 365.687C658.12 365.985 657.867 366.275 657.605 366.556C657.342 366.838 657.07 367.111 656.79 367.374C656.509 367.638 656.22 367.891 655.923 368.134C655.625 368.378 655.32 368.612 655.006 368.835C654.694 369.06 654.374 369.273 654.047 369.476C653.719 369.677 653.385 369.868 653.046 370.048C652.706 370.23 652.361 370.398 652.01 370.554C651.659 370.711 651.302 370.857 650.941 370.991C650.58 371.125 650.216 371.246 649.846 371.355C649.579 371.434 649.31 371.507 649.04 371.573C648.768 371.638 648.496 371.697 648.223 371.751C647.949 371.804 647.675 371.85 647.4 371.89C647.123 371.929 646.846 371.962 646.568 371.988C646.291 372.014 646.013 372.033 645.736 372.046C645.457 372.06 645.178 372.067 644.899 372.066C644.621 372.066 644.342 372.058 644.064 372.044C643.786 372.03 643.509 372.01 643.23 371.983C642.953 371.954 642.677 371.919 642.402 371.879C642.126 371.838 641.852 371.791 641.579 371.737C641.305 371.683 641.033 371.623 640.763 371.555C640.492 371.488 640.223 371.415 639.956 371.336C639.69 371.255 639.426 371.169 639.163 371.077C638.9 370.984 638.639 370.885 638.38 370.779C638.123 370.674 637.868 370.562 637.616 370.444C637.363 370.327 637.113 370.203 636.866 370.073C636.62 369.944 636.377 369.808 636.137 369.667C635.896 369.525 635.659 369.378 635.426 369.224C635.193 369.072 634.965 368.914 634.74 368.75C634.514 368.586 634.292 368.417 634.076 368.242C633.859 368.068 633.647 367.888 633.438 367.703C633.23 367.518 633.025 367.328 632.825 367.134C632.626 366.939 632.431 366.74 632.242 366.535C632.052 366.331 631.868 366.123 631.689 365.91C631.509 365.697 631.334 365.48 631.165 365.258C630.995 365.037 630.831 364.812 630.673 364.582C630.515 364.353 630.363 364.12 630.215 363.883C630.068 363.646 629.927 363.406 629.791 363.163C629.656 362.919 629.527 362.672 629.404 362.423C629.28 362.173 629.163 361.921 629.051 361.665C628.939 361.41 628.834 361.152 628.736 360.891C628.637 360.631 628.544 360.369 628.457 360.104C628.371 359.839 628.291 359.572 628.217 359.303C628.144 359.034 628.077 358.764 628.016 358.492C627.957 358.22 627.903 357.946 627.856 357.672C627.809 357.397 627.768 357.121 627.734 356.845C627.7 356.568 627.672 356.291 627.652 356.014C627.632 355.735 627.619 355.457 627.611 355.179C627.604 354.9 627.603 354.622 627.609 354.343C627.617 354.065 627.63 353.786 627.649 353.508C627.668 353.229 627.695 352.952 627.729 352.676C627.762 352.399 627.801 352.123 627.849 351.848C627.895 351.574 627.947 351.3 628.006 351.028C628.067 350.756 628.133 350.486 628.206 350.216C628.278 349.947 628.358 349.68 628.443 349.415C628.529 349.15 628.621 348.887 628.719 348.626C628.816 348.366 628.921 348.108 629.032 347.851C629.143 347.595 629.26 347.343 629.383 347.094C629.506 346.843 629.635 346.596 629.77 346.352C629.905 346.108 630.045 345.868 630.192 345.631C630.338 345.394 630.49 345.16 630.648 344.93C630.806 344.7 630.969 344.474 631.137 344.252C631.306 344.031 631.48 343.814 631.658 343.6C631.838 343.386 632.023 343.177 632.212 342.973C632.401 342.768 632.594 342.568 632.793 342.373C632.992 342.178 633.196 341.988 633.404 341.803C633.611 341.617 633.823 341.437 634.04 341.262C634.257 341.086 634.478 340.916 634.704 340.752C634.929 340.588 635.157 340.429 635.39 340.274C635.622 340.121 635.858 339.973 636.097 339.832C636.337 339.69 636.58 339.553 636.826 339.423C637.073 339.292 637.322 339.168 637.574 339.05C637.826 338.931 638.082 338.819 638.34 338.713C638.598 338.606 638.857 338.507 639.12 338.414Z" fill="#010101"/>
<path d="M641.319 343.49C650.757 344.577 643.363 354.995 638.519 357.726C629.236 358.27 631.603 345.451 641.319 343.49Z" fill="white"/>
<path d="M309.941 423.114C312.084 422.973 314.16 423.059 316.3 423.189C318.403 442.653 308.501 472.296 323.462 484.295L324.235 484.915C326.45 500.278 365.299 495.177 377.566 495.322L494.298 496.705C500.283 496.777 506.781 497.498 512.7 496.908C517.281 510.941 515.017 526.715 514.806 541.212C514.589 556.094 518.359 579.13 500.074 585.019C490.136 588.22 452.103 586.249 439.096 586.098L359.667 585.183C329.589 584.811 314.103 577.115 314.013 613.227L313.822 638.764C313.719 647.324 311.934 663.644 298.131 656.559C297.934 656.458 185.913 552.718 185.015 551.409C187.558 543.065 183.576 534.753 190.391 527.413C215.931 499.9 253.16 472.556 281.602 446.555C290.379 438.53 299.731 429.298 309.941 423.114Z" fill="#14BBAB"/>
<path d="M695.487 453.767C697.022 452.197 699.676 451.674 701.77 451.201C730.095 464.193 768.194 515.668 778.393 543.03C794.475 586.187 746.815 602.354 717.309 617.777C706.274 623.546 683.424 638.645 671.279 639.174C655.079 634.211 636.736 630.938 635.325 608.264C633.56 579.881 677.352 556.584 699.75 543.787C707.483 539.37 717.035 538.401 714.896 527.929C714.124 510.136 709.85 492.285 703.785 475.588C701.586 469.534 695.927 459.578 695.487 453.767Z" fill="#14BBAB"/>
<path d="M739.558 668.673C781.954 699.763 831.339 700.535 874.642 669.444C893.257 656.077 909.172 645.245 910.11 676.945C912.148 679.155 914.307 681.311 916.03 683.781C903.726 711.008 877.281 733.712 848.875 742.475C808.803 754.84 781.727 739.701 748.523 722.242C746.557 705.8 739.937 683.026 739.558 668.673Z" fill="#5762EE"/>
<path d="M457.771 760.33C464.215 760.24 477.914 767.886 490.936 768.266C493.907 768.353 505.218 766.708 506.844 767.498L507.173 768.324C509.371 769.155 511.564 769.585 513.859 770.044C509.65 772.147 504.584 777.332 512.027 779.549L536.595 770.313C538.991 775.597 541.043 781.034 543.497 786.287C545.088 802.501 550.748 813.947 539.012 828.265C532.031 836.779 513.181 847.546 501.519 842.914C494.272 835.95 485.798 839.302 477.553 825.638C469.199 811.793 461.653 777.195 457.771 760.33Z" fill="#14BBAB"/>
</svg>
